<svg width="16" height="16" viewBox="0 0 16 16" fill="none" xmlns="http://www.w3.org/2000/svg">
<path d="M12.4736 10.9185L5.08297 3.52789C4.76119 3.20555 4.23863 3.20555 3.91629 3.52789L3.5274 3.91678C3.20506 4.23912 3.20506 4.76168 3.5274 5.08346L10.918 12.4741C11.2398 12.7964 11.7624 12.7964 12.0847 12.4741L12.4736 12.0852C12.796 11.7629 12.796 11.2403 12.4736 10.9185Z" fill="#517357"/>
<path d="M10.918 3.52789L3.5274 10.9185C3.20506 11.2403 3.20506 11.7629 3.5274 12.0852L3.91629 12.4741C4.23863 12.7964 4.76119 12.7964 5.08297 12.4741L12.4736 5.08346C12.796 4.76168 12.796 4.23912 12.4736 3.91678L12.0847 3.52789C11.7624 3.20555 11.2398 3.20555 10.918 3.52789Z" fill="#517357"/>
<path d="M4.49991 3.28613C4.28868 3.28613 4.07746 3.36644 3.91629 3.52761L3.5274 3.9165C3.20506 4.23884 3.20506 4.7614 3.5274 5.08319L6.44493 8.00072L8.00051 6.44514L5.08297 3.52761C4.92236 3.36644 4.71113 3.28613 4.49991 3.28613Z" fill="#517357"/>
<path d="M8.00051 6.44531L6.44493 8.00089L3.5274 10.9184C3.20506 11.2402 3.20506 11.7628 3.5274 12.0851L3.91629 12.474C4.07746 12.6352 4.28868 12.716 4.49991 12.716C4.71113 12.716 4.92236 12.6352 5.08297 12.474L8.00051 9.55647V6.44531Z" fill="#517357"/>
</svg>
