<svg width="16" height="17" viewBox="0 0 16 17" fill="none" xmlns="http://www.w3.org/2000/svg">
<path fill-rule="evenodd" clip-rule="evenodd" d="M2.36387 8.49998C3.18438 10.6853 5.39889 12.25 8.00001 12.25C10.6011 12.25 12.8156 10.6854 13.6361 8.50002C12.8156 6.31466 10.6011 4.75 7.99999 4.75C5.39889 4.75 3.18439 6.31464 2.36387 8.49998ZM1.03051 8.3127C1.96105 5.52401 4.72854 3.5 7.99999 3.5C11.2715 3.5 14.039 5.52404 14.9695 8.31274C15.0102 8.43466 15.0102 8.56539 14.9695 8.68731C14.0389 11.476 11.2715 13.5 8.00001 13.5C4.72853 13.5 1.96103 11.476 1.03051 8.68726C0.989829 8.56534 0.98983 8.43461 1.03051 8.3127ZM7.9997 7.25C7.26627 7.25 6.67171 7.80964 6.67171 8.5C6.67171 9.19036 7.26627 9.75 7.9997 9.75C8.73313 9.75 9.3277 9.19036 9.3277 8.5C9.3277 7.80964 8.73313 7.25 7.9997 7.25ZM5.34371 8.5C5.34371 7.11929 6.53284 6 7.9997 6C9.46657 6 10.6557 7.11929 10.6557 8.5C10.6557 9.88071 9.46657 11 7.9997 11C6.53284 11 5.34371 9.88071 5.34371 8.5Z" fill="#026363"/>
</svg>
