<svg width="24" height="24" viewBox="0 0 24 24" fill="none" xmlns="http://www.w3.org/2000/svg">
<path fill-rule="evenodd" clip-rule="evenodd" d="M12 2C6.48438 2 2 6.48438 2 12C2 17.5156 6.48438 22 12 22C17.5156 22 22 17.5156 22 12C22 6.48438 17.5156 2 12 2Z" fill="#4BAE4F"/>
<path fill-rule="evenodd" clip-rule="evenodd" d="M16.8359 8.62891C17.0781 8.87109 17.0781 9.26953 16.8359 9.51172L10.9766 15.3711C10.8555 15.4922 10.6953 15.5547 10.5352 15.5547C10.375 15.5547 10.2149 15.4922 10.0938 15.3711L7.16407 12.4414C6.92188 12.1992 6.92188 11.8008 7.16407 11.5586C7.40626 11.3164 7.8047 11.3164 8.04688 11.5586L10.5352 14.0469L15.9531 8.62891C16.1953 8.38281 16.5938 8.38281 16.8359 8.62891Z" fill="white"/>
</svg>
