<svg width="24" height="24" viewBox="0 0 24 24" fill="none" xmlns="http://www.w3.org/2000/svg">
<path d="M11.4184 19.9999C11.4182 19.9999 11.4185 19.9999 11.4183 19.9999C8.90714 19.9999 6.79434 19.8821 5.1482 19.7377C4.1335 19.6487 3.49816 18.5983 3.88717 17.6569C4.96621 15.0455 6.29843 12.4659 7.86127 9.96405C8.92507 8.26106 9.95202 6.82566 10.8204 5.69631C11.4261 4.90868 12.6109 4.90845 13.2166 5.69604C14.0807 6.81976 15.1022 8.24703 16.1607 9.93954C17.7156 12.4257 19.0428 14.9891 20.12 17.5844C20.5112 18.5266 19.8734 19.5786 18.8571 19.6679C16.3476 19.8885 13.8537 19.9999 11.4184 19.9999Z" fill="#FF4D4F"/>
<path d="M12.3734 5.14733C12.0787 5.2248 11.8029 5.40958 11.5989 5.70126C10.8023 6.8406 9.86027 8.28887 8.88449 10.007C7.45079 12.531 6.22865 15.1335 5.23899 17.7678C4.9155 18.6284 5.36382 19.5793 6.14358 19.817C5.79493 19.7919 5.46315 19.7651 5.14825 19.7376C4.1334 19.6485 3.49833 18.5982 3.88707 17.6565C4.96615 15.0455 6.29855 12.4658 7.86139 9.96394C8.92523 8.26106 9.95203 6.82536 10.8205 5.69631C11.2039 5.19764 11.8198 5.01456 12.3734 5.14733Z" fill="#FF4D4F"/>
<path d="M19.0296 12.6079V12.4984C19.0296 12.1123 19.3286 11.7921 19.7139 11.7657L20.8989 11.6844C21.3233 11.6552 21.6836 11.9917 21.6836 12.4172V12.6892C21.6836 13.1146 21.3233 13.4511 20.8989 13.422L19.7139 13.3407C19.3286 13.3143 19.0296 12.9941 19.0296 12.6079Z" fill="#FF4D4F"/>
<path d="M18.1152 9.08516L18.0605 8.99033C17.8674 8.65591 17.9662 8.22911 18.2866 8.01361L19.2722 7.35074C19.6252 7.1133 20.1055 7.22451 20.3182 7.59294L20.4542 7.82856C20.667 8.19699 20.5231 8.66854 20.141 8.85555L19.0741 9.37764C18.7273 9.5474 18.3083 9.41959 18.1152 9.08516Z" fill="#FF4D4F"/>
<path d="M15.5622 6.49235L15.4674 6.43761C15.133 6.24455 15.0052 5.8255 15.1749 5.47867L15.697 4.41181C15.884 4.02969 16.3555 3.88587 16.724 4.09857L16.9596 4.23459C17.328 4.44733 17.4392 4.92758 17.2018 5.28061L16.5389 6.26618C16.3234 6.58658 15.8966 6.68542 15.5622 6.49235Z" fill="#FF4D4F"/>
<path d="M4.97038 12.6079V12.4984C4.97038 12.1123 4.6714 11.7921 4.28614 11.7657L3.10114 11.6844C2.67673 11.6552 2.31639 11.9917 2.31639 12.4172V12.6892C2.31639 13.1146 2.67673 13.4511 3.10114 13.422L4.28614 13.3407C4.67136 13.3143 4.97038 12.9941 4.97038 12.6079Z" fill="#FF4D4F"/>
<path d="M5.88481 9.08516L5.93954 8.99033C6.13261 8.65591 6.03377 8.22911 5.71338 8.01361L4.7278 7.35074C4.37477 7.1133 3.89452 7.22451 3.68178 7.59294L3.54576 7.82856C3.33302 8.19699 3.47688 8.66854 3.859 8.85555L4.92586 9.37764C5.2727 9.5474 5.69174 9.41959 5.88481 9.08516Z" fill="#FF4D4F"/>
<path d="M8.43779 6.49235L8.53263 6.43761C8.86705 6.24455 8.99483 5.8255 8.8251 5.47867L8.30302 4.41181C8.116 4.02969 7.64446 3.88587 7.27603 4.09857L7.0404 4.23459C6.67197 4.44733 6.56076 4.92758 6.7982 5.28061L7.46107 6.26618C7.67657 6.58658 8.10337 6.68542 8.43779 6.49235Z" fill="#FF4D4F"/>
<path d="M11.5802 9.1297C11.8627 9.1013 12.1453 9.1013 12.4279 9.1297C12.7854 9.16568 13.059 9.46424 13.0722 9.82329C13.1153 10.9978 13.1153 12.1722 13.0722 13.3467C13.0591 13.7058 12.7854 14.0044 12.4279 14.0403C12.1453 14.0687 11.8627 14.0687 11.5802 14.0403C11.2227 14.0043 10.949 13.7058 10.9358 13.3467C10.8927 12.1722 10.8927 10.9978 10.9358 9.82329C10.949 9.4642 11.2227 9.16564 11.5802 9.1297Z" fill="white"/>
<path d="M11.6007 15.329C11.8696 15.3161 12.1385 15.3161 12.4074 15.329C12.778 15.3467 13.0756 15.645 13.0923 16.0156C13.1086 16.377 13.1086 16.7383 13.0923 17.0996C13.0756 17.4703 12.778 17.7686 12.4074 17.7863C12.1385 17.7992 11.8696 17.7992 11.6007 17.7863C11.2301 17.7686 10.9325 17.4703 10.9157 17.0996C10.8994 16.7383 10.8994 16.377 10.9157 16.0156C10.9325 15.645 11.2301 15.3467 11.6007 15.329Z" fill="white"/>
</svg>
